<?xml version="1.0" encoding="UTF-8" standalone="no"?>
<svg
   xmlns:dc="http://purl.org/dc/elements/1.1/"
   xmlns:cc="http://creativecommons.org/ns#"
   xmlns:rdf="http://www.w3.org/1999/02/22-rdf-syntax-ns#"
   xmlns:svg="http://www.w3.org/2000/svg"
   xmlns="http://www.w3.org/2000/svg"
   viewBox="0 0 187.12 108.24"
   height="108.24"
   width="187.12"
   xml:space="preserve"
   id="svg2"
   version="1.1"><metadata
     id="metadata8"><rdf:RDF><cc:Work
         rdf:about=""><dc:format>image/svg+xml</dc:format><dc:type
           rdf:resource="http://purl.org/dc/dcmitype/StillImage" /></cc:Work></rdf:RDF></metadata><defs
     id="defs6" /><g
     transform="matrix(1.3333333,0,0,-1.3333333,0,108.24)"
     id="g10"><g
       transform="scale(0.1)"
       id="g12"><path
         id="path14"
         style="fill:#ee2722;fill-opacity:1;fill-rule:nonzero;stroke:none"
         d="m 555.813,599.605 h 65.476 L 586.688,655.453 523.152,554.625 H 494.16 l 77.356,121.004 c 3.25,4.953 8.933,7.883 15.117,7.883 6.043,0 11.629,-2.891 14.949,-7.657 l 77.551,-121.23 h -28.918 l -13.672,22.539 h -66.328 l -14.402,22.441" /><path
         id="path16"
         style="fill:#ee2722;fill-opacity:1;fill-rule:nonzero;stroke:none"
         d="M 856.27,577.164 V 682.289 H 831.641 V 566.793 c 0,-3.125 1.308,-6.223 3.672,-8.438 2.324,-2.402 5.566,-3.73 8.925,-3.73 h 111.848 l 14.598,22.539 H 856.27" /><path
         id="path18"
         style="fill:#ee2722;fill-opacity:1;fill-rule:nonzero;stroke:none"
         d="m 450.168,595.941 c 23.895,0 43.133,19.348 43.133,43.145 0,23.898 -19.238,43.203 -43.133,43.203 H 342.715 V 554.625 h 24.558 v 105.098 h 81.243 c 11.406,0 20.625,-9.18 20.625,-20.637 0,-11.367 -9.219,-20.691 -20.625,-20.691 l -69.239,0.058 73.289,-63.828 h 35.657 l -49.27,41.316 h 11.215" /><path
         id="path20"
         style="fill:#ee2722;fill-opacity:1;fill-rule:nonzero;stroke:none"
         d="m 264.188,577.066 c 22.902,0 41.378,18.555 41.378,41.329 0,22.878 -18.476,41.328 -41.378,41.328 H 193.32 c -22.832,0 -41.269,-18.45 -41.269,-41.328 0,-22.774 18.437,-41.329 41.269,-41.329 h 70.868 m -72.469,-22.441 c -35.293,0 -63.887,28.535 -63.887,63.77 0,35.332 28.594,63.894 63.887,63.894 h 74.16 c 35.371,0 63.816,-28.562 63.816,-63.894 0,-35.235 -28.445,-63.77 -63.816,-63.77 h -74.16" /><path
         id="path22"
         style="fill:#ee2722;fill-opacity:1;fill-rule:nonzero;stroke:none"
         d="m 730.383,554.625 c -35.246,0 -63.957,28.535 -63.957,63.77 0,35.332 28.711,63.894 63.957,63.894 h 88.18 l -14.532,-22.566 h -71.922 c -22.961,0 -41.418,-18.45 -41.418,-41.328 0,-22.774 18.457,-41.329 41.418,-41.329 h 88.371 l -14.335,-22.441 h -75.762" /><path
         id="path24"
         style="fill:#ee2722;fill-opacity:1;fill-rule:nonzero;stroke:none"
         d="m 1030.55,577.066 c -18.91,0 -34.808,12.704 -39.73,30.059 h 104.88 l 14.46,22.547 H 990.82 c 4.922,17.375 20.82,30.051 39.73,30.051 h 72.05 l 14.39,22.566 h -88.04 c -35.22,0 -63.833,-28.562 -63.833,-63.894 0,-35.235 28.613,-63.77 63.833,-63.77 h 75.76 l 14.37,22.441 h -88.53" /><path
         id="path26"
         style="fill:#ee2722;fill-opacity:1;fill-rule:nonzero;stroke:none"
         d="m 1141.29,669.848 c 0.96,0 1.99,0.097 2.6,1.035 0.41,0.39 0.47,0.859 0.47,1.379 0,0.867 -0.49,1.582 -1.25,1.902 -0.86,0.43 -1.45,0.43 -2.95,0.43 h -0.86 v -4.746 h 1.99 m -1.13,7.265 c 2.09,0 3.12,-0.058 4.25,-0.379 2.78,-0.949 3.03,-3.605 3.03,-4.472 0,-0.246 -0.06,-0.774 -0.14,-1.379 -0.15,-0.613 -0.5,-1.903 -1.97,-2.754 -0.19,-0.137 -0.31,-0.234 -0.66,-0.418 l 3.67,-6.652 h -3.57 l -3.34,6.222 h -2.13 v -6.222 h -3.19 v 16.054 h 4.05 m 1.36,-22.84 c 7.99,0 14.3,6.368 14.3,14.286 0,7.949 -6.31,14.445 -14.3,14.445 -7.98,0 -14.37,-6.496 -14.37,-14.445 0,-7.918 6.39,-14.286 14.37,-14.286 m -11.36,14.344 c 0,6.262 5.05,11.328 11.36,11.328 6.29,0 11.29,-5.066 11.29,-11.328 0,-6.199 -5,-11.23 -11.29,-11.23 -6.31,0 -11.36,5.031 -11.36,11.23" /><path
         id="path28"
         style="fill:#231f20;fill-opacity:1;fill-rule:nonzero;stroke:none"
         d="m 128.906,482.652 v 5.703 H 1275.8 v -5.703 h -1146.96 0.066" /><path
         id="path30"
         style="fill:#231f20;fill-opacity:1;fill-rule:nonzero;stroke:none"
         d="m 128.906,265.625 v 15.938 H 1275.8 v -15.938 h -1146.96 0.066" /><path
         id="path32"
         style="fill:#231f20;fill-opacity:1;fill-rule:nonzero;stroke:none"
         d="m 136.25,148.867 c 0.098,-2.5 0.098,-5.586 1.594,-7.871 1.187,-1.894 4.187,-4.375 9.265,-4.375 4.082,0 7.871,1.68 9.961,5.078 1.7,2.891 1.7,7.461 1.7,9.668 v 49.903 h 9.96 v -52.598 c 0,-13.262 -10.46,-20.43 -22.316,-20.43 -3.785,0 -12.156,0.899 -17.137,7.481 -3.386,4.57 -3.593,10.254 -3.593,13.144 h 10.566" /><path
         id="path34"
         style="fill:#231f20;fill-opacity:1;fill-rule:nonzero;stroke:none"
         d="m 214.109,153.945 c -3.789,0 -18.035,0 -18.035,-10.156 0,-3.184 1.992,-8.672 10.364,-8.672 4.785,0 8.367,1.895 10.664,5.391 2.086,3.379 2.183,6.172 2.39,13.144 -1.699,0.196 -3.086,0.293 -5.383,0.293 z m 6.477,-24.609 c -0.691,2.5 -0.898,4.883 -0.898,7.48 -4.485,-8.281 -11.258,-9.062 -15.442,-9.062 -11.465,0 -17.637,6.465 -17.637,14.746 0,3.984 1.399,10.352 8.774,14.629 5.379,3.008 13.347,3.301 17.332,3.301 2.39,0 3.887,-0.098 6.777,-0.293 0,6.172 0,8.867 -1.797,11.054 -1.894,2.481 -5.976,3.282 -8.672,3.282 -9.46,0 -9.96,-6.465 -10.058,-8.457 h -9.363 c 0.293,2.578 0.593,6.074 3.484,9.453 3.789,4.179 10.859,5.39 16.144,5.39 7.274,0 15.047,-2.304 17.735,-7.382 1.59,-2.989 1.687,-5.372 1.687,-7.676 l -0.39,-23.906 c 0,-0.801 0.097,-7.481 0.793,-12.559 h -8.469" /><path
         id="path36"
         style="fill:#231f20;fill-opacity:1;fill-rule:nonzero;stroke:none"
         d="m 241.105,179.355 h 10.465 l 15.942,-39.648 15.547,39.648 h 10.359 l -21.926,-50.019 h -9.461 l -20.926,50.019" /><path
         id="path38"
         style="fill:#231f20;fill-opacity:1;fill-rule:nonzero;stroke:none"
         d="m 330.664,153.945 c -3.789,0 -18.035,0 -18.035,-10.156 0,-3.184 1.988,-8.672 10.359,-8.672 4.785,0 8.367,1.895 10.664,5.391 2.09,3.379 2.188,6.172 2.395,13.144 -1.699,0.196 -3.098,0.293 -5.383,0.293 z m 6.477,-24.609 c -0.696,2.5 -0.903,4.883 -0.903,7.48 -4.48,-8.281 -11.258,-9.062 -15.437,-9.062 -11.465,0 -17.637,6.465 -17.637,14.746 0,3.984 1.399,10.352 8.77,14.629 5.379,3.008 13.347,3.301 17.336,3.301 2.39,0 3.882,-0.098 6.777,-0.293 0,6.172 0,8.867 -1.801,11.054 -1.891,2.481 -5.976,3.282 -8.672,3.282 -9.461,0 -9.961,-6.465 -10.054,-8.457 h -9.368 c 0.293,2.578 0.594,6.074 3.489,9.453 3.789,4.179 10.855,5.39 16.14,5.39 7.278,0 15.047,-2.304 17.735,-7.382 1.589,-2.989 1.687,-5.372 1.687,-7.676 l -0.39,-23.906 c 0,-0.801 0.097,-7.481 0.792,-12.559 h -8.464" /><path
         id="path40"
         style="fill:#231f20;fill-opacity:1;fill-rule:nonzero;stroke:none"
         d="m 402.949,150.371 c 0.203,-5 0.801,-14.258 17.344,-14.258 14.941,0 16.836,9.258 16.836,12.852 0,8.066 -6.477,9.668 -16.543,12.168 -10.957,2.676 -15.84,3.867 -19.523,6.367 -5.875,3.984 -7.477,9.375 -7.477,14.141 0,14.648 13.855,21.035 27.398,21.035 4.786,0 14.454,-0.801 20.227,-7.071 3.992,-4.394 4.187,-9.277 4.387,-12.265 h -10.364 c -0.5,8.965 -8.066,10.957 -15.144,10.957 -9.961,0 -15.942,-4.473 -15.942,-11.66 0,-6.367 4.18,-8.555 12.954,-10.645 17.136,-4.394 19.031,-4.785 23.218,-7.578 6.672,-4.394 7.168,-11.367 7.168,-14.355 0,-12.754 -9.961,-22.422 -28.394,-22.422 -5.481,0 -16.645,0.898 -22.317,8.183 -4.082,5.274 -4.187,11.055 -4.187,14.551 h 10.359" /><path
         id="path42"
         style="fill:#231f20;fill-opacity:1;fill-rule:nonzero;stroke:none"
         d="m 465.156,201.27 h 45.137 v -8.457 h -35.164 v -22.422 h 33.476 v -8.379 h -33.476 v -23.907 h 35.965 v -8.769 h -45.938 v 71.934" /><path
         id="path44"
         style="fill:#231f20;fill-opacity:1;fill-rule:nonzero;stroke:none"
         d="m 555.691,198.281 h 45.539 v -8.359 l -25.312,-60.586 h -11.262 l 26.504,60.684 h -35.469 v 8.261" /><path
         id="path46"
         style="fill:#231f20;fill-opacity:1;fill-rule:nonzero;stroke:none"
         d="m 660.066,169.688 h 11.86 c 6.582,0 16.637,0.507 16.637,12.265 0,11.25 -9.364,11.25 -14.54,11.25 h -13.957 z m -9.961,31.582 h 24.114 c 8.769,0 14.746,-0.489 19.629,-5.762 3.586,-3.692 5.285,-8.574 5.285,-13.965 0,-5.469 -1.797,-10.156 -5.688,-14.043 -3.777,-3.789 -8.765,-6.172 -21.715,-6.172 h -11.664 v -31.992 h -9.961 v 71.934" /><path
         id="path48"
         style="fill:#231f20;fill-opacity:1;fill-rule:nonzero;stroke:none"
         d="m 715.176,169.199 c 0,3.379 -0.203,6.875 -0.496,10.156 h 9.461 l 0.207,-9.667 c 1.785,6.972 7.761,9.277 11.953,9.863 2.793,0.41 4.883,0.312 6.472,0.215 v -9.18 c -0.5,0.195 -1.093,0.293 -1.796,0.41 -0.696,0.098 -1.59,0.098 -2.684,0.098 -11.066,0 -13.652,-6.582 -13.652,-15.156 v -26.602 h -9.465 v 39.863" /><path
         id="path50"
         style="fill:#231f20;fill-opacity:1;fill-rule:nonzero;stroke:none"
         d="m 778.711,134.629 c 7.07,0 15.144,5.078 15.144,20.117 0,12.461 -5.781,19.024 -14.546,19.024 -5.981,0 -15.649,-3.77 -15.649,-19.415 0,-10.273 4.387,-19.726 15.051,-19.726 z m 0.598,46.016 c 20.027,0 24.507,-15.743 24.507,-26.192 0,-14.648 -8.269,-26.816 -25.3,-26.816 -16.543,0 -24.621,11.465 -24.621,26.113 0,12.363 5.785,26.895 25.414,26.895" /><path
         id="path52"
         style="fill:#231f20;fill-opacity:1;fill-rule:nonzero;stroke:none"
         d="m 853.164,142.188 c 1.992,2.597 3.391,5.292 3.391,14.355 0,6.27 -1.399,9.863 -3.887,12.461 -2.492,2.676 -6.484,4.375 -10.766,4.375 -11.851,0 -13.457,-11.953 -13.457,-18.34 0,-7.656 2.297,-17.832 13.75,-17.832 5.481,0 8.672,1.992 10.969,4.981 z M 831.34,125.449 c 0.398,-5.586 2.793,-9.765 11.656,-9.765 13.059,0 13.254,9.472 13.254,23.027 -3.984,-8.281 -13.445,-8.477 -16.445,-8.477 -4.578,0 -11.153,0.996 -15.34,6.172 -4.289,5.098 -5.676,11.758 -5.676,18.438 0,16.933 9.961,25.215 22.219,25.215 10.055,0 13.75,-4.981 15.738,-7.579 l 0.102,6.875 h 9.07 l -0.203,-9.062 -0.102,-31.289 c 0,-12.051 -0.398,-16.934 -2.39,-20.723 -4.18,-7.968 -13.946,-8.965 -20.821,-8.965 -20.031,0 -20.625,9.356 -21.023,16.133 h 9.961" /><path
         id="path54"
         style="fill:#231f20;fill-opacity:1;fill-rule:nonzero;stroke:none"
         d="m 886.648,169.199 c 0,3.379 -0.203,6.875 -0.496,10.156 h 9.461 l 0.207,-9.667 c 1.785,6.972 7.766,9.277 11.953,9.863 2.793,0.41 4.883,0.312 6.473,0.215 v -9.18 c -0.496,0.195 -1.094,0.293 -1.785,0.41 -0.703,0.098 -1.602,0.098 -2.695,0.098 -11.067,0 -13.653,-6.582 -13.653,-15.156 v -26.602 h -9.465 v 39.863" /><path
         id="path56"
         style="fill:#231f20;fill-opacity:1;fill-rule:nonzero;stroke:none"
         d="m 953.02,153.945 c -3.79,0 -18.04,0 -18.04,-10.156 0,-3.184 1.993,-8.672 10.364,-8.672 4.785,0 8.367,1.895 10.664,5.391 2.09,3.379 2.183,6.172 2.39,13.144 -1.699,0.196 -3.085,0.293 -5.378,0.293 z m 6.472,-24.609 c -0.691,2.5 -0.898,4.883 -0.898,7.48 -4.485,-8.281 -11.258,-9.062 -15.442,-9.062 -11.464,0 -17.632,6.465 -17.632,14.746 0,3.984 1.394,10.352 8.765,14.629 5.383,3.008 13.352,3.301 17.336,3.301 2.395,0 3.887,-0.098 6.777,-0.293 0,6.172 0,8.867 -1.796,11.054 -1.895,2.481 -5.977,3.282 -8.672,3.282 -9.461,0 -9.961,-6.465 -10.059,-8.457 h -9.363 c 0.293,2.578 0.594,6.074 3.484,9.453 3.789,4.179 10.86,5.39 16.145,5.39 7.273,0 15.047,-2.304 17.73,-7.382 1.594,-2.989 1.692,-5.372 1.692,-7.676 l -0.391,-23.906 c 0,-0.801 0.098,-7.481 0.793,-12.559 h -8.469" /><path
         id="path58"
         style="fill:#231f20;fill-opacity:1;fill-rule:nonzero;stroke:none"
         d="m 987.617,172.676 -0.207,6.679 h 9.477 v -7.265 c 4.773,7.871 11.553,8.555 15.833,8.555 11.06,0 14.56,-5.665 16.34,-9.356 1.7,2.793 5.78,9.356 16.84,9.356 7.18,0 18.34,-2.989 18.34,-17.735 v -33.574 h -9.46 v 32.09 c 0,4.375 -0.81,6.269 -1.7,7.578 -1.6,2.285 -4.79,4.375 -9.56,4.375 -6.09,0 -9.37,-3.496 -10.67,-5.274 -2.2,-3.105 -2.2,-8.574 -2.2,-10.761 v -28.008 h -9.46 v 33.086 c 0,6.172 -3.58,10.957 -10.96,10.957 -6.37,0 -9.86,-3.984 -10.96,-5.488 -2.09,-2.891 -2.192,-6.973 -2.192,-10.157 v -28.398 h -9.461 v 43.34" /><path
         id="path60"
         style="fill:#231f20;fill-opacity:1;fill-rule:nonzero;stroke:none"
         d="m 1084.86,172.676 -0.2,6.679 h 9.47 v -7.265 c 4.78,7.871 11.55,8.555 15.84,8.555 11.06,0 14.55,-5.665 16.34,-9.356 1.7,2.793 5.78,9.356 16.83,9.356 7.18,0 18.34,-2.989 18.34,-17.735 v -33.574 h -9.46 v 32.09 c 0,4.375 -0.8,6.269 -1.7,7.578 -1.59,2.285 -4.78,4.375 -9.56,4.375 -6.08,0 -9.36,-3.496 -10.66,-5.274 -2.2,-3.105 -2.2,-8.574 -2.2,-10.761 v -28.008 h -9.46 v 33.086 c 0,6.172 -3.59,10.957 -10.96,10.957 -6.38,0 -9.86,-3.984 -10.97,-5.488 -2.09,-2.891 -2.18,-6.973 -2.18,-10.157 v -28.398 h -9.47 v 43.34" /><path
         id="path62"
         style="fill:#231f20;fill-opacity:1;fill-rule:nonzero;stroke:none"
         d="m 1215.03,159.238 c 0.1,4.766 -0.79,14.746 -12.35,14.746 -6.08,0 -13.45,-3.691 -13.66,-14.746 z m -26.41,-6.582 c -0.19,-10.371 4.09,-18.027 14.36,-18.027 6.07,0 10.96,3.184 11.76,10.351 h 9.36 c -0.3,-2.48 -0.7,-6.582 -4.29,-10.468 -2.18,-2.481 -7.17,-6.66 -17.23,-6.66 -15.74,0 -23.21,9.765 -23.21,25.605 0,9.863 1.99,18.027 9.86,23.516 4.77,3.379 10.76,3.672 13.64,3.672 22.42,0 21.92,-19.825 21.73,-27.989 h -35.98" /><path
         id="path64"
         style="fill:#231f20;fill-opacity:1;fill-rule:nonzero;stroke:none"
         d="m 1242.57,169.199 c 0,3.379 -0.21,6.875 -0.5,10.156 h 9.46 l 0.21,-9.667 c 1.79,6.972 7.76,9.277 11.95,9.863 2.79,0.41 4.88,0.312 6.48,0.215 v -9.18 c -0.5,0.195 -1.1,0.293 -1.79,0.41 -0.7,0.098 -1.6,0.098 -2.7,0.098 -11.06,0 -13.65,-6.582 -13.65,-15.156 v -26.602 h -9.46 v 39.863" /><path
         id="path66"
         style="fill:#231f20;fill-opacity:1;fill-rule:nonzero;stroke:none"
         d="m 174.871,393.305 c -0.301,2.5 -1.199,12.668 -11.656,12.668 -11.457,0 -16.242,-11.965 -16.242,-26.809 0,-4.297 0,-24.711 15.039,-24.711 6.484,0 12.656,4.082 12.961,13.656 h 16.238 c -0.305,-4.3 -0.691,-10.98 -6.477,-16.957 -6.375,-6.562 -14.453,-8.066 -21.023,-8.066 -24.816,0 -32.883,18.34 -32.883,36.176 0,22.812 12.758,37.98 32.981,37.98 15.742,0 26.804,-9.57 26.804,-23.937 h -15.742" /><path
         id="path68"
         style="fill:#231f20;fill-opacity:1;fill-rule:nonzero;stroke:none"
         d="m 237.195,375.473 c 0,2.285 -0.203,11.269 -8.765,11.269 -6.489,0 -9.172,-5.39 -9.477,-11.269 z m -18.738,-9.258 c 0,-3.305 0,-13.461 10.266,-13.461 3.687,0 7.371,1.387 8.765,6.973 h 13.457 c -0.203,-2.383 -0.703,-6.68 -4.785,-10.957 -3.687,-3.887 -10.262,-5.879 -17.637,-5.879 -4.285,0 -12.449,0.8 -17.734,6.269 -4.59,4.785 -6.473,11.563 -6.473,19.633 0,8.184 1.993,17.949 10.457,23.809 3.887,2.597 8.672,4.199 14.153,4.199 7.168,0 15.742,-2.793 20.32,-12.168 3.391,-6.875 3.195,-14.238 2.988,-18.418 h -33.777" /><path
         id="path70"
         style="fill:#231f20;fill-opacity:1;fill-rule:nonzero;stroke:none"
         d="m 265.73,382.738 c 0,2.403 -0.398,9.668 -0.691,12.559 h 13.848 l 0.301,-9.668 c 1.886,4.297 5.175,10.371 17.14,9.766 v -13.243 c -14.949,1.387 -15.848,-6.289 -15.848,-12.558 v -24.809 h -14.75 v 37.953" /><path
         id="path72"
         style="fill:#231f20;fill-opacity:1;fill-rule:nonzero;stroke:none"
         d="m 343.293,345.469 c -4.785,-1.289 -9.074,-1.582 -11.469,-1.582 -14.844,0 -14.844,9.355 -14.844,13.554 v 27.602 h -9.667 v 9.766 h 9.667 v 9.875 l 14.653,5.371 v -15.246 h 11.953 v -9.766 h -11.953 v -22.719 c 0.097,-4.59 0.097,-7.48 6.668,-7.48 2.195,0 3.191,0.097 4.992,0.293 v -9.668" /><path
         id="path74"
         style="fill:#231f20;fill-opacity:1;fill-rule:nonzero;stroke:none"
         d="m 357.141,395.199 h 14.746 v -50.414 h -14.746 z m -0.5,21.535 h 15.742 v -12.863 h -15.742 v 12.863" /><path
         id="path76"
         style="fill:#231f20;fill-opacity:1;fill-rule:nonzero;stroke:none"
         d="m 395.43,384.633 h -7.469 v 10.469 h 7.469 v 6.875 c 0,8.878 2.988,16.046 17.343,16.046 0.997,0 3.782,0 7.969,-0.488 v -10.273 c -1.496,0.215 -1.894,0.312 -3.086,0.312 -7.578,0 -7.578,-3.996 -7.578,-6.594 v -5.878 h 9.363 v -10.469 h -9.363 V 344.785 H 395.43 v 39.848" /><path
         id="path78"
         style="fill:#231f20;fill-opacity:1;fill-rule:nonzero;stroke:none"
         d="m 434.414,395.199 h 14.746 v -50.414 h -14.746 z m -0.496,21.535 h 15.738 v -12.863 h -15.738 v 12.863" /><path
         id="path80"
         style="fill:#231f20;fill-opacity:1;fill-rule:nonzero;stroke:none"
         d="m 497.41,375.473 c 0,2.285 -0.203,11.269 -8.765,11.269 -6.489,0 -9.172,-5.39 -9.473,-11.269 z m -18.738,-9.258 c 0,-3.305 0,-13.461 10.266,-13.461 3.691,0 7.371,1.387 8.765,6.973 h 13.457 c -0.203,-2.383 -0.699,-6.68 -4.781,-10.957 -3.691,-3.887 -10.266,-5.879 -17.641,-5.879 -4.285,0 -12.449,0.8 -17.73,6.269 -4.59,4.785 -6.477,11.563 -6.477,19.633 0,8.184 1.992,17.949 10.457,23.809 3.891,2.597 8.672,4.199 14.153,4.199 7.168,0 15.742,-2.793 20.324,-12.168 3.387,-6.875 3.191,-14.238 2.984,-18.418 h -33.777" /><path
         id="path82"
         style="fill:#231f20;fill-opacity:1;fill-rule:nonzero;stroke:none"
         d="m 549.465,353.34 c 4.285,0 7.769,2.598 9.363,5.683 2.195,4.2 2.395,9.379 2.395,11.86 0,9.863 -4.289,15.254 -10.957,15.254 -9.868,0 -10.969,-11.856 -10.969,-16.934 0,-8.383 2.793,-15.863 10.168,-15.863 z m 11.258,63.394 h 14.843 v -63.785 c 0,-2.988 0.204,-6.269 0.403,-8.164 h -14.946 l -0.398,7.266 c -0.996,-1.797 -1.992,-3.692 -5.09,-5.684 -3.68,-2.383 -7.566,-2.578 -9.754,-2.578 -13.457,0 -21.426,9.258 -21.426,25.004 0,16.641 9.063,27.012 22.215,27.012 9.075,0 12.856,-5.078 14.153,-6.875 v 27.804" /><path
         id="path84"
         style="fill:#231f20;fill-opacity:1;fill-rule:nonzero;stroke:none"
         d="m 638.313,384.242 h 6.179 c 4.981,0 14.246,0 14.246,10.957 0,9.778 -8.269,9.778 -12.652,9.778 h -7.773 z m -15.247,32.395 h 22.227 c 10.359,0 19.023,-0.703 25,-7.871 3.789,-4.602 4.387,-9.778 4.387,-13.469 0,-8.359 -3.489,-15.449 -9.16,-19.121 -5.286,-3.399 -12.559,-3.399 -16.348,-3.399 h -10.461 v -27.992 h -15.645 v 71.852" /><path
         id="path86"
         style="fill:#231f20;fill-opacity:1;fill-rule:nonzero;stroke:none"
         d="m 687.473,382.738 c 0,2.403 -0.403,9.668 -0.696,12.559 h 13.848 l 0.305,-9.668 c 1.883,4.297 5.175,10.371 17.136,9.766 v -13.243 c -14.953,1.387 -15.847,-6.289 -15.847,-12.558 v -24.809 h -14.746 v 37.953" /><path
         id="path88"
         style="fill:#231f20;fill-opacity:1;fill-rule:nonzero;stroke:none"
         d="m 753.652,353.242 c 6.477,0 10.86,3.887 10.86,17.25 0,6.68 -1.297,15.938 -11.055,15.938 -10.754,0 -10.859,-12.442 -10.859,-17.032 0,-11.273 3.789,-16.156 11.054,-16.156 z m -0.195,43.051 c 18.231,0 26.106,-12.344 26.106,-26.406 0,-14.145 -8.176,-26.899 -26.411,-26.899 -14.336,0 -25.691,8.867 -25.691,26.508 0,12.149 6.172,26.797 25.996,26.797" /><path
         id="path90"
         style="fill:#231f20;fill-opacity:1;fill-rule:nonzero;stroke:none"
         d="m 795.145,384.633 h -7.469 v 10.469 h 7.469 v 6.875 c 0,8.878 2.992,16.046 17.343,16.046 0.996,0 3.782,0 7.973,-0.488 v -10.273 c -1.496,0.215 -1.898,0.312 -3.09,0.312 -7.574,0 -7.574,-3.996 -7.574,-6.594 v -5.878 h 9.363 v -10.469 h -9.363 v -39.848 h -14.652 v 39.848" /><path
         id="path92"
         style="fill:#231f20;fill-opacity:1;fill-rule:nonzero;stroke:none"
         d="m 861.426,375.473 c 0,2.285 -0.215,11.269 -8.77,11.269 -6.484,0 -9.172,-5.39 -9.472,-11.269 z m -18.738,-9.258 c 0,-3.305 0,-13.461 10.261,-13.461 3.692,0 7.364,1.387 8.77,6.973 h 13.457 c -0.215,-2.383 -0.703,-6.68 -4.785,-10.957 -3.692,-3.887 -10.274,-5.879 -17.637,-5.879 -4.285,0 -12.461,0.8 -17.734,6.269 -4.59,4.785 -6.473,11.563 -6.473,19.633 0,8.184 1.988,17.949 10.457,23.809 3.887,2.597 8.672,4.199 14.148,4.199 7.161,0 15.735,-2.793 20.325,-12.168 3.378,-6.875 3.183,-14.238 2.988,-18.418 h -33.777" /><path
         id="path94"
         style="fill:#231f20;fill-opacity:1;fill-rule:nonzero;stroke:none"
         d="m 900.012,359.336 c 0.191,-3.203 2.183,-6.875 8.355,-6.875 5.293,0 7.778,2.988 7.778,5.977 0,2.285 -1.196,4.082 -6.973,5.667 l -9.16,2.5 c -4.082,1.192 -12.746,3.692 -12.746,13.946 0,9.765 8.957,15.742 22.004,15.742 10.371,0 18.726,-4.785 19.136,-14.844 h -13.457 c -0.386,5.586 -4.883,5.977 -7.168,5.977 -3.98,0 -6.968,-1.895 -6.968,-4.981 0,-3.379 2.48,-4.082 6.875,-5.273 l 9.058,-2.5 c 9.16,-2.481 13.457,-7.168 13.457,-14.047 0,-8.672 -7.476,-17.344 -23.125,-17.344 -6.48,0 -12.652,1.407 -17.234,6.192 -3.281,3.476 -3.574,7.461 -3.672,9.863 h 13.84" /><path
         id="path96"
         style="fill:#231f20;fill-opacity:1;fill-rule:nonzero;stroke:none"
         d="m 953.352,359.336 c 0.211,-3.203 2.207,-6.875 8.378,-6.875 5.262,0 7.762,2.988 7.762,5.977 0,2.285 -1.191,4.082 -6.965,5.667 l -9.175,2.5 c -4.082,1.192 -12.754,3.692 -12.754,13.946 0,9.765 8.965,15.742 22.031,15.742 10.34,0 18.719,-4.785 19.109,-14.844 h -13.437 c -0.41,5.586 -4.871,5.977 -7.18,5.977 -3.98,0 -6.973,-1.895 -6.973,-4.981 0,-3.379 2.5,-4.082 6.875,-5.273 l 9.055,-2.5 c 9.18,-2.481 13.457,-7.168 13.457,-14.047 0,-8.672 -7.48,-17.344 -23.097,-17.344 -6.485,0 -12.657,1.407 -17.247,6.192 -3.281,3.476 -3.589,7.461 -3.687,9.863 h 13.848" /><path
         id="path98"
         style="fill:#231f20;fill-opacity:1;fill-rule:nonzero;stroke:none"
         d="m 996.426,395.199 h 14.744 v -50.414 h -14.744 z m -0.508,21.535 h 15.742 v -12.863 h -15.742 v 12.863" /><path
         id="path100"
         style="fill:#231f20;fill-opacity:1;fill-rule:nonzero;stroke:none"
         d="m 1051.54,353.242 c 6.49,0 10.86,3.887 10.86,17.25 0,6.68 -1.29,15.938 -11.05,15.938 -10.76,0 -10.86,-12.442 -10.86,-17.032 0,-11.273 3.79,-16.156 11.05,-16.156 z m -0.19,43.051 c 18.24,0 26.11,-12.344 26.11,-26.406 0,-14.145 -8.18,-26.899 -26.41,-26.899 -14.35,0 -25.7,8.867 -25.7,26.508 0,12.149 6.17,26.797 26,26.797" /><path
         id="path102"
         style="fill:#231f20;fill-opacity:1;fill-rule:nonzero;stroke:none"
         d="m 1092.25,386.137 c 0,0.195 0,5.683 -0.3,9.16 h 14.14 l 0.41,-7.559 c 1.39,2.285 5.38,8.75 16.33,8.75 9.87,0 14.06,-5.976 15.35,-9.453 1.1,-3.086 1.39,-5.683 1.39,-15.058 v -27.192 h -15.04 v 31.293 c 0,2.09 0,3.887 -0.8,5.469 -1.09,2.187 -3.38,4.297 -7.17,4.297 -3.18,0 -6.07,-1.504 -7.67,-3.887 -0.9,-1.309 -1.8,-3.789 -1.8,-7.676 v -29.496 h -14.84 v 41.352" /><path
         id="path104"
         style="fill:#231f20;fill-opacity:1;fill-rule:nonzero;stroke:none"
         d="m 1168.52,360.332 c 0,-3.398 2.28,-7.187 7.16,-7.187 2.7,0 4.89,1.308 6.27,2.89 2.6,3.184 2.8,7.07 2.8,12.465 -9.46,0.801 -16.23,-2.187 -16.23,-8.168 z m 18.12,-15.547 c -0.49,3.086 -0.49,5.371 -0.49,6.875 -5.58,-8.066 -12.26,-8.066 -15.06,-8.066 -7.26,0 -10.54,2.09 -12.55,3.984 -2.99,2.988 -4.38,7.07 -4.38,11.055 0,3.984 1.39,11.351 10.66,15.648 6.18,2.793 15.04,2.793 19.93,2.793 0,3.281 -0.1,4.883 -0.71,6.66 -1.29,3.692 -5.17,4.2 -6.56,4.2 -2.09,0 -4.3,-0.899 -5.59,-2.793 -1.09,-1.7 -1.09,-3.282 -1.09,-4.493 h -14.45 c 0.1,2.696 0.41,8.086 5.68,11.856 4.59,3.301 10.47,4.101 15.26,4.101 4.17,0 12.94,-0.703 17.92,-6.484 3.38,-4.082 3.48,-10.058 3.48,-12.363 l 0.12,-20.219 c 0,-4.297 0.29,-8.574 1.19,-12.754 h -13.36" /><path
         id="path106"
         style="fill:#231f20;fill-opacity:1;fill-rule:nonzero;stroke:none"
         d="m 1215.39,416.832 h 14.75 v -72.047 h -14.75 v 72.047" /></g></g></svg>